<svg id="Capa_1" enable-background="new 0 0 512 512" height="512" viewBox="0 0 512 512" width="512" xmlns="http://www.w3.org/2000/svg"><g><g><path d="m49.092 134.005c-1.764 0-3.527-.633-4.926-1.898l-32.02-28.977c-6.279-5.683-9.88-13.799-9.88-22.267v-46.212c0-16.559 13.472-30.031 30.032-30.031h33.588c16.56 0 30.032 13.472 30.032 30.031v46.211c0 8.468-3.601 16.585-9.881 22.267l-32.02 28.977c-1.398 1.266-3.161 1.899-4.925 1.899zm-16.794-114.704c-8.465 0-15.351 6.886-15.351 15.35v46.211c0 4.329 1.841 8.478 5.05 11.383l27.094 24.519 27.094-24.519c3.21-2.906 5.051-7.054 5.051-11.383v-46.211c0-8.465-6.886-15.35-15.351-15.35zm48.814 78.386h.01z" fill="#756e78"/></g><g><path d="m411.344 229.417h-246.1c-5.523 0-10-4.477-10-10v-134.152c0-5.523 4.477-10 10-10h246.1c5.523 0 10 4.477 10 10v134.152c0 5.523-4.477 10-10 10z" fill="#f9efda"/></g><g><path d="m411.344 75.265h-20.024v114.341c0 5.405-4.382 9.787-9.787 9.787h-226.289v20.024c0 5.523 4.477 10 10 10h246.1c5.523 0 10-4.477 10-10v-134.152c0-5.523-4.477-10-10-10z" fill="#f4ddb1"/></g><g><path d="m450.797 422.839h-235.266c-5.523 0-10-4.477-10-10v-173.422c0-5.523 4.477-10 10-10h235.266c5.523 0 10 4.477 10 10v173.422c0 5.523-4.477 10-10 10z" fill="#f9efda"/></g><g><path d="m450.797 229.417h-20.024v153.61c0 5.405-4.382 9.787-9.787 9.787h-215.455v20.024c0 5.523 4.477 10 10 10h235.266c5.523 0 10-4.477 10-10v-173.421c0-5.523-4.477-10-10-10z" fill="#f4ddb1"/></g><g><circle cx="433.549" cy="473.462" fill="#756e78" r="26.578"/></g><g><circle cx="380.394" cy="473.462" fill="#756e78" r="26.578"/></g><g><path d="m441.987 448.26c.888 2.652 1.376 5.487 1.376 8.438 0 14.678-11.899 26.578-26.578 26.578-2.951 0-5.786-.488-8.438-1.376 3.528 10.54 13.474 18.139 25.202 18.139 14.679 0 26.578-11.899 26.578-26.578 0-11.727-7.599-21.673-18.14-25.201z" fill="#665e66"/></g><g><path d="m388.832 448.26c.888 2.652 1.376 5.487 1.376 8.438 0 14.678-11.899 26.578-26.578 26.578-2.951 0-5.786-.488-8.438-1.376 3.528 10.54 13.474 18.139 25.202 18.139 14.678 0 26.578-11.899 26.578-26.578-.001-11.727-7.6-21.673-18.14-25.201z" fill="#665e66"/></g><g><path d="m135.047 392.993h-68.714c-4.054 0-7.341-3.286-7.341-7.341s3.287-7.341 7.341-7.341h68.714c4.054 0 7.341 3.286 7.341 7.341-.001 4.055-3.287 7.341-7.341 7.341z" fill="#756e78"/></g><g><g><path d="m66.22 349.644h-34.256v-255.76c0-3.784 3.067-6.851 6.851-6.851h20.554c3.784 0 6.851 3.067 6.851 6.851z" fill="#756e78"/></g></g><g><path d="m59.369 87.032h-17.128c3.784 0 6.851 3.067 6.851 6.851v255.761h17.128v-255.76c0-3.784-3.067-6.852-6.851-6.852z" fill="#665e66"/></g><g><path d="m81.353 463.523-59.788-65.063c-4.751-5.17-7.388-11.936-7.388-18.958v-39.914c0-3.784 3.067-6.851 6.851-6.851h53.474c3.784 0 6.851 3.067 6.851 6.851z" fill="#a298a5"/></g><g><path d="m74.502 332.736h-22.197c3.784 0 6.851 3.067 6.851 6.851v99.78l22.197 24.155v-123.935c0-3.784-3.067-6.851-6.851-6.851z" fill="#8b818e"/></g><g><circle cx="51.933" cy="455.565" fill="#756e78" r="44.475"/></g><g><path d="m75.383 417.778c4.235 6.809 6.688 14.842 6.688 23.451 0 24.563-19.912 44.475-44.475 44.475-8.609 0-16.641-2.453-23.451-6.688 7.848 12.619 21.833 21.024 37.787 21.024 24.563 0 44.475-19.912 44.475-44.475 0-15.954-8.405-29.938-21.024-37.787z" fill="#665e66"/></g><g><circle cx="51.933" cy="455.565" fill="#f9efda" r="17.492"/></g><g><path d="m57.57 439.019c.603 1.771.946 3.662.946 5.637 0 9.661-7.832 17.492-17.492 17.492-1.975 0-3.867-.343-5.637-.946 2.348 6.891 8.861 11.855 16.546 11.855 9.661 0 17.492-7.832 17.492-17.492 0-7.685-4.964-14.198-11.855-16.546z" fill="#f4ddb1"/></g><g><path d="m205.531 432.659-51.089-152.51c-1.47-4.388-5.58-7.346-10.209-7.346h-79.205c-3.243 0-5.872 2.629-5.872 5.872v37.517c0 3.243 2.629 5.872 5.872 5.872h33.733c2.319 0 4.319 1.627 4.791 3.897l22.199 106.697h79.78z" fill="#e28086"/></g><g><path d="m154.442 280.15c-1.47-4.388-5.58-7.346-10.209-7.346h-24.716c4.628 0 8.739 2.958 10.209 7.346l51.089 152.51h24.715z" fill="#dd636e"/></g><g><path d="m411.344 75.265h-72.031v154.152h72.031c5.523 0 10-4.477 10-10v-134.152c0-5.523-4.477-10-10-10z" fill="#f4ddb1"/></g><g><path d="m450.797 229.417h-71.48v193.422h71.48c5.523 0 10-4.477 10-10v-173.422c0-5.523-4.477-10-10-10z" fill="#f4ddb1"/></g><g><path d="m411.344 75.265h-20.024v114.341c0 5.405-4.382 9.787-9.787 9.787h-42.22v30.024h72.031c5.523 0 10-4.477 10-10v-134.152c0-5.523-4.477-10-10-10z" fill="#efcb84"/></g><g><path d="m450.797 229.417h-20.024v153.61c0 5.405-4.382 9.787-9.787 9.787h-41.669v30.024h71.48c5.523 0 10-4.477 10-10v-173.421c0-5.523-4.477-10-10-10z" fill="#efcb84"/></g><g><path d="m273.68 170.509h-118.436v-54.504h118.436c3.866 0 7 3.134 7 7v40.504c0 3.866-3.134 7-7 7z" fill="#f4ddb1"/></g><g><path d="m226.176 150.598h-41.015c-4.054 0-7.341-3.286-7.341-7.341s3.287-7.341 7.341-7.341h41.015c4.054 0 7.341 3.286 7.341 7.341s-3.287 7.341-7.341 7.341z" fill="#efcb84"/></g><g><path d="m302.951 349.644h-62.342c-3.866 0-7-3.134-7-7v-62.342c0-3.866 3.134-7 7-7h62.342c3.866 0 7 3.134 7 7v62.342c0 3.866-3.134 7-7 7z" fill="#f4ddb1"/></g><g><path d="m284.027 305.972h-24.494c-4.054 0-7.341-3.286-7.341-7.341s3.287-7.341 7.341-7.341h24.494c4.054 0 7.341 3.286 7.341 7.341-.001 4.055-3.287 7.341-7.341 7.341z" fill="#efcb84"/></g><g><path d="m284.027 329.891h-24.494c-4.054 0-7.341-3.286-7.341-7.341s3.287-7.341 7.341-7.341h24.494c4.054 0 7.341 3.286 7.341 7.341-.001 4.055-3.287 7.341-7.341 7.341z" fill="#efcb84"/></g><g><path d="m495.659 464.04h-371.417c-4.971 0-9-4.029-9-9v-23.201c0-4.971 4.029-9 9-9h371.417c4.971 0 9 4.029 9 9v23.201c0 4.971-4.029 9-9 9z" fill="#e4989d"/></g><path d="m495.659 422.839h-11.847v11.354c0 4.97-4.029 9-9 9h-359.57v11.847c0 4.97 4.029 9 9 9h371.417c4.971 0 9-4.03 9-9v-23.201c0-4.971-4.029-9-9-9z" fill="#e28086"/><g><circle cx="149.531" cy="385.653" fill="#665e66" r="8.594"/></g><g><path d="m51.932 430.732c-13.692 0-24.832 11.14-24.832 24.833s11.14 24.833 24.832 24.833c13.693 0 24.833-11.14 24.833-24.833s-11.14-24.833-24.833-24.833zm0 34.985c-5.597 0-10.151-4.554-10.151-10.152s4.554-10.152 10.151-10.152c5.598 0 10.152 4.554 10.152 10.152s-4.554 10.152-10.152 10.152z"/><path d="m226.176 135.917h-41.015c-4.054 0-7.341 3.286-7.341 7.341s3.287 7.341 7.341 7.341h41.015c4.054 0 7.341-3.286 7.341-7.341s-3.287-7.341-7.341-7.341z"/><path d="m303.1 265.961h-62.64c-7.825 0-14.192 6.367-14.192 14.192v62.64c0 7.825 6.367 14.192 14.192 14.192h62.64c7.825 0 14.192-6.367 14.192-14.192v-62.64c-.001-7.825-6.367-14.192-14.192-14.192zm-.49 76.342h-61.661v-61.661h61.661z"/><path d="m259.533 305.972h24.494c4.054 0 7.341-3.286 7.341-7.341s-3.287-7.341-7.341-7.341h-24.494c-4.054 0-7.341 3.286-7.341 7.341s3.286 7.341 7.341 7.341z"/><path d="m259.533 329.891h24.494c4.054 0 7.341-3.286 7.341-7.341s-3.287-7.341-7.341-7.341h-24.494c-4.054 0-7.341 3.286-7.341 7.341s3.286 7.341 7.341 7.341z"/><path d="m495.851 415.498h-27.908c.115-.801.195-1.613.195-2.446v-.001-173.846c0-9.444-7.684-17.128-17.128-17.128h-22.521c.115-.801.195-1.614.195-2.447v-134.577c0-9.444-7.684-17.128-17.128-17.128h-246.524c-9.444 0-17.128 7.684-17.128 17.128v134.577c0 9.444 7.684 17.128 17.128 17.128h33.354c-.115.801-.195 1.614-.195 2.447v148.432l-36.788-109.819c-2.476-7.389-9.375-12.355-17.169-12.355h-70.674v-151.042l12.477-11.291c6.279-5.682 9.881-13.799 9.881-22.267v-46.212c0-16.559-13.472-30.031-30.032-30.031h-33.588c-16.56 0-30.032 13.472-30.032 30.031v46.211c0 8.468 3.601 16.584 9.881 22.267l12.477 11.291v28.836c0 4.055 3.287 7.341 7.341 7.341s7.341-3.286 7.341-7.341v-48.883h19.575v172.617c-4.195 2.216-7.064 6.62-7.064 11.685v37.517c0 3.577 1.434 6.821 3.751 9.202h-16.264v-149.104c0-4.055-3.287-7.341-7.341-7.341s-7.341 3.286-7.341 7.341v149.105h-3.595c-7.825 0-14.192 6.367-14.192 14.192v39.914c0 8.885 3.311 17.382 9.323 23.925l7.796 8.485c-14.388 9.216-23.954 25.334-23.954 43.654 0 28.571 23.244 51.815 51.815 51.815s51.816-23.244 51.816-51.815c0-14.152-5.708-26.992-14.937-36.353v-26.219h21.308l5.231 25.142c-4.408 2.887-7.331 7.861-7.331 13.512v23.584c0 8.904 7.245 16.149 16.149 16.149h164.243c4.054 0 7.341-3.286 7.341-7.341s-3.287-7.341-7.341-7.341h-164.243c-.81 0-1.468-.659-1.468-1.468v-23.584c0-.81.659-1.468 1.468-1.468h371.8c.81 0 1.468.659 1.468 1.468v23.584c0 .81-.659 1.468-1.468 1.468h-173.635c-4.054 0-7.341 3.286-7.341 7.341s3.287 7.341 7.341 7.341h24.343c-.042.692-.083 1.384-.083 2.081 0 18.703 15.215 33.919 33.918 33.919 10.761 0 20.36-5.043 26.578-12.883 6.218 7.84 15.817 12.883 26.578 12.883 18.703 0 33.919-15.215 33.919-33.919 0-.696-.033-1.389-.076-2.081h28.459c8.905 0 16.149-7.245 16.149-16.149v-23.584c-.001-8.905-7.246-16.149-16.15-16.149zm-84.295-332.892c1.349 0 2.447 1.097 2.447 2.447v134.577c0 1.35-1.098 2.447-2.447 2.447h-64.903v-139.471zm-248.971 40.74h110.755v39.823h-110.755zm0 96.284v-41.78h111.244c7.825 0 14.192-6.367 14.192-14.192v-40.801c0-7.825-6.367-14.192-14.192-14.192h-111.244v-23.612c0-1.35 1.098-2.447 2.447-2.447h166.941v139.471h-166.941c-1.349 0-2.447-1.098-2.447-2.447zm-15.103 62.851 44.559 133.017h-62.362l-18.94-91.03c-1.174-5.646-6.212-9.743-11.978-9.743h-32.265v-34.581h77.737c1.475 0 2.78.939 3.249 2.337zm-108.667-202.79c-8.108-.023-14.574 6.856-14.192 14.929l-2.626-2.376c-3.21-2.905-5.05-7.054-5.05-11.383v-46.21c0-8.465 6.886-15.35 15.351-15.35h33.588c8.465 0 15.351 6.886 15.351 15.35v46.211c.173 5.68-3.394 10.403-7.677 13.759v-.738c0-7.825-6.367-14.192-14.192-14.192zm-11.845 313.802c-3.516-3.827-5.452-8.796-5.452-13.992v-39.425h52.495v68.679c-6.732-3.205-14.258-5.006-22.197-5.006-4.748 0-9.343.655-13.714 1.856zm24.845 99.206c-20.476 0-37.134-16.658-37.134-37.134s16.658-37.134 37.134-37.134 37.134 16.658 37.134 37.134c.001 20.476-16.658 37.134-37.134 37.134zm36.879-114.387v-38.725c0-3.993-1.664-7.6-4.327-10.181h12.405l10.176 48.907h-18.254zm124.178 34.739v-173.846c0-1.35 1.098-2.447 2.447-2.447h156.658v32.329c0 4.055 3.287 7.341 7.341 7.341s7.341-3.286 7.341-7.341v-32.329h64.352c1.349 0 2.447 1.097 2.447 2.447v173.846c0 1.35-1.098 2.447-2.447 2.447h-64.352v-113.27c0-4.055-3.287-7.341-7.341-7.341s-7.341 3.286-7.341 7.341v113.269h-156.659c-1.349.001-2.446-1.096-2.446-2.446zm167.521 79.648c-10.608 0-19.237-8.63-19.237-19.237 0-.699.051-1.392.125-2.081h38.226c.074.689.124 1.382.124 2.081 0 10.607-8.63 19.237-19.238 19.237zm72.394-19.237c0 10.608-8.63 19.237-19.237 19.237s-19.237-8.63-19.237-19.237c0-.7.051-1.392.125-2.081h38.226c.073.689.123 1.382.123 2.081z"/><circle cx="149.531" cy="385.653" r="8.594"/></g></g></svg>