<svg id="Layer_5" enable-background="new 0 0 64 64" height="512" viewBox="0 0 64 64" width="512" xmlns="http://www.w3.org/2000/svg" xmlns:xlink="http://www.w3.org/1999/xlink"><linearGradient id="SVGID_1_" gradientUnits="userSpaceOnUse" x1="32" x2="32" y1="63" y2="1"><stop offset="0" stop-color="#9f2fff"/><stop offset="1" stop-color="#0bb1d3"/></linearGradient><path d="m17 5h-2v-4h2zm-12.168-.555-1.664 1.11 2 3 1.664-1.109zm24 1.11-1.664-1.109-2 3 1.664 1.109zm31.677 28.887 2.491.84v7.436l-2.491.84c-.56 2.667-1.592 5.163-3.073 7.436l1.164 2.349-5.258 5.257-2.35-1.164c-2.271 1.481-4.768 2.514-7.435 3.073l-.839 2.491h-7.436l-.84-2.491c-2.667-.56-5.163-1.592-7.435-3.073l-2.35 1.164-3.683-3.683c-1.269 1.284-3.029 2.083-4.974 2.083-3.859 0-7-3.141-7-7v-1.184c-1.161-.414-2-1.514-2-2.816 0-.395.081-.77.22-1.116-1.275-.345-2.22-1.501-2.22-2.884 0-1.654 1.346-3 3-3h.947c-.195-2-.966-3.923-2.226-5.498l-2.582-3.227c-2.024-2.532-3.139-5.71-3.139-8.95 0-7.899 6.426-14.325 14.325-14.325h1.35c6.975 0 12.793 5.012 14.061 11.623 1.199-.485 2.439-.864 3.705-1.131l.841-2.492h7.436l.84 2.491c2.667.56 5.163 1.592 7.435 3.073l2.35-1.164 5.258 5.258-1.164 2.349c1.48 2.272 2.512 4.768 3.072 7.435zm-38.509 12.558c.552 0 1-.448 1-1s-.448-1-1-1h-12c-.552 0-1 .448-1 1s.448 1 1 1zm3-1c0 .203-.021.401-.06.593 2.806 5.193 8.154 8.407 14.06 8.407 8.822 0 16-7.178 16-16s-7.178-16-16-16c-3.075 0-6.066.886-8.656 2.557-.261.843-.596 1.661-1.007 2.443h8.249l1.707-1.707 1.414 1.414-1.707 1.707v8.586h-10v-9.399c-.342.581-.716 1.144-1.139 1.673l-2.581 3.228c-1.261 1.575-2.032 3.498-2.227 5.498h.947c1.654 0 3 1.346 3 3 0 1.383-.945 2.538-2.22 2.884.139.346.22.721.22 1.116zm7.293-12.707 3.293-3.293h-4.586v6h6v-4.586l-3.293 3.293zm-26.592-4.267 1.327 1.658c.315-.136.641-.244.981-.313l3.618-.729c.445-.13.842-.462 1.094-.897-.549-.481-1-1.067-1.297-1.744h-.424c-1.654 0-3-1.346-3-3 0-.438.099-.851.269-1.226l-.65-1.301c-.405-.812-.619-1.717-.619-2.62 0-3.228 2.626-5.854 5.854-5.854h6.291c3.229 0 5.855 2.626 5.855 5.854 0 .902-.214 1.808-.618 2.617l-.651 1.302c.17.376.269.789.269 1.227 0 1.654-1.346 3-3 3h-.424c-.297.676-.748 1.262-1.296 1.743.257.438.669.774 1.171.918l3.538.71c.341.069.668.177.983.313l1.326-1.659c1.742-2.178 2.701-4.913 2.701-7.7.001-6.796-5.528-12.325-12.324-12.325h-1.35c-6.796 0-12.325 5.529-12.325 12.325 0 2.787.959 5.523 2.701 7.701zm5.299-6.026c-.552 0-1 .448-1 1s.448 1 1 1zm3.613-4.054 1.387-1.334 1.387 1.334c.706.68 1.634 1.054 2.613 1.054h1v1c.445 0 .863.103 1.243.278l.35-.699c.266-.534.407-1.131.407-1.725 0-2.125-1.729-3.854-3.854-3.854h-6.291c-2.126 0-3.855 1.729-3.855 3.854 0 .594.141 1.19.407 1.725l.349.699c.381-.175.799-.278 1.244-.278v-1h1c.979 0 1.907-.374 2.613-1.054zm6.387 6.054c.552 0 1-.448 1-1s-.448-1-1-1zm-5 3c1.654 0 3-1.346 3-3v-3.086c-1.123-.196-2.163-.722-3-1.526-.836.805-1.877 1.33-3 1.526v3.086c0 1.654 1.346 3 3 3zm-1.967 2.331c.159.945.978 1.669 1.967 1.669.991 0 1.811-.728 1.967-1.675-.159-.185-.303-.382-.426-.593-.488.16-1 .268-1.541.268s-1.052-.108-1.54-.268c-.123.214-.267.413-.427.599zm-3.076 8.669h10.086c.197-2.415 1.106-4.74 2.605-6.651-.019-.004-.035-.013-.054-.017l-3.615-.729c-.097-.028-.187-.066-.28-.1-.599 1.468-2.029 2.497-3.699 2.497-1.671 0-3.102-1.031-3.699-2.49-.068.023-.132.053-.201.073l-3.694.749c-.018.004-.035.012-.053.016 1.499 1.911 2.407 4.237 2.604 6.652zm-3.957 3c0 .552.448 1 1 1h2 12 2c.552 0 1-.448 1-1s-.448-1-1-1h-16c-.552 0-1 .448-1 1zm14 8v-1h-10v1c0 2.757 2.243 5 5 5s5-2.243 5-5zm40-13.282-2.238-.754-.105-.58c-.512-2.801-1.587-5.402-3.197-7.732l-.334-.484 1.045-2.11-3.227-3.227-2.11 1.045-.484-.334c-2.33-1.61-4.932-2.686-7.732-3.197l-.58-.105-.756-2.24h-4.564l-.754 2.238-.58.105c-1.521.278-3.001.742-4.415 1.362.009.207.031.411.031.62 0 .543-.043 1.083-.104 1.62 2.48-1.263 5.258-1.945 8.104-1.945 9.925 0 18 8.075 18 18s-8.075 18-18 18c-6.291 0-12.021-3.239-15.292-8.539-.216.15-.456.265-.708.355v1.184c0 1.188-.3 2.307-.825 3.289l2.881 2.881 2.11-1.045.484.334c2.33 1.61 4.932 2.686 7.732 3.197l.58.105.756 2.239h4.564l.754-2.238.58-.105c2.801-.512 5.402-1.587 7.732-3.197l.484-.334 2.11 1.045 3.227-3.227-1.045-2.11.334-.484c1.61-2.33 2.686-4.932 3.197-7.732l.105-.58 2.24-.756zm-22 13.282h-10v-10h8.586l1.707-1.707 1.414 1.414-1.707 1.707zm-2-2v-4.586l-3.293 3.293-1.414-1.414 3.293-3.293h-4.586v6zm12 0h-8v2h8zm0-4h-8v2h8zm0-4h-8v2h8zm0-4h-8v2h8zm0-4h-8v2h8zm0-4h-8v2h8z" fill="url(#SVGID_1_)"/></svg>